<?xml version="1.0" encoding="utf-8"?>
<!-- Generator: Adobe Illustrator 23.0.1, SVG Export Plug-In . SVG Version: 6.00 Build 0)  -->
<svg version="1.1" id="Layer_1" xmlns="http://www.w3.org/2000/svg" xmlns:xlink="http://www.w3.org/1999/xlink" x="0px" y="0px"
	 viewBox="0 0 512 102.8" style="enable-background:new 0 0 512 102.8;" xml:space="preserve">
<style type="text/css">
	.st0{fill:#7963E0;}
</style>
<title>logo</title>
<g>
	<path class="st0" d="M55.8,16.7l-26.9-5.5c-0.1,0-0.2,0-0.3,0c-0.4,0-0.7,0.1-1,0.4L7.4,31.8l-0.2-0.1c-0.7-0.2-1.2-0.9-1-1.7
		c0.1-0.2,0.2-0.4,0.3-0.6L26.7,9.3C27,9,27.5,8.9,27.9,8.9L55,14.5c0.7,0.1,1.2,0.9,1.1,1.6C56,16.3,55.9,16.6,55.8,16.7z"/>
	<path d="M5.8,37.1c-0.3-0.1-0.6-0.3-0.7-0.7c-0.1-0.3,0-0.7,0.2-0.9L28,12.9c0.2-0.2,0.4-0.3,0.7-0.3c0.1,0,0.1,0,0.2,0l30.5,6.3
		c0.3,0.1,0.6,0.3,0.7,0.6c0.1,0.3,0,0.7-0.2,0.9l-6.3,6.7c-0.1,0.1-0.2,0.2-0.4,0.2l-0.3,0.1c-0.1,0-0.2,0-0.3,0
		c-0.1,0-0.3,0-0.4-0.1c-3.9-1.9-8.3-2.9-12.7-2.9c-10.4,0-20.1,5.6-25.2,14.7L5.8,37.1z"/>
	<path d="M5.2,38.7l-0.7,5.5c-0.1,0.8,0.3,1.5,1,1.8l0.1,0.1c0.9,0.4,1.9,0.1,2.4-0.7l0,0c0.3-0.5,0.3-1.2,0.1-1.7l-2.5-5
		c-0.1-0.1-0.2-0.1-0.2-0.1C5.3,38.6,5.2,38.6,5.2,38.7z"/>
	<path class="st0" d="M30.9,70.1c2.8,2.3,6.2,3.5,10.2,3.5c2.7,0.1,5.5-0.5,7.9-1.6c2.4-1.2,4.7-2.9,6.6-4.8l7.2,6.4
		c-2.6,3-5.7,5.5-9.2,7.3c-3.6,1.8-7.8,2.8-12.8,2.8c-3.7,0-7.4-0.7-10.8-2C23.3,79,18,73.8,15.4,67.2c-1.5-3.6-2.2-7.5-2.1-11.4
		c0-3.7,0.6-7.4,1.9-10.9c1.2-3.3,3.1-6.3,5.4-8.9c2.3-2.5,5.2-4.6,8.3-6.1c3.3-1.5,7-2.3,10.6-2.2c4.3,0,8,0.8,11.3,2.3
		c3.1,1.5,5.9,3.6,8,6.3c2.2,2.7,3.8,5.9,4.8,9.3c1.1,3.6,1.6,7.3,1.6,11.1c0,0.5,0,1.1-0.1,1.6c-0.1,0.5-0.1,1.1-0.2,1.7H25.6
		C26.3,64.4,28.1,67.7,30.9,70.1z M53.1,51.8c-0.2-1.9-0.6-3.8-1.3-5.5c-0.6-1.6-1.6-3.2-2.7-4.5c-1.2-1.3-2.6-2.3-4.1-3
		c-1.7-0.8-3.6-1.2-5.4-1.1c-3.8,0-6.9,1.3-9.4,3.9s-4,6-4.5,10.2L53.1,51.8z"/>
	<path d="M77.1,8.9h12.4v59.7h37.3v11.3H77.1V8.9z"/>
	<path d="M152,67.6c2.8,2.3,6.2,3.5,10.2,3.5c2.7,0.1,5.4-0.5,7.9-1.6c2.4-1.2,4.7-2.8,6.6-4.8l7.2,6.4c-2.5,3-5.7,5.5-9.2,7.3
		c-3.5,1.8-7.8,2.7-12.7,2.7c-3.7,0-7.4-0.7-10.8-2c-6.6-2.6-11.9-7.8-14.6-14.4c-1.5-3.6-2.2-7.5-2.1-11.4c0-3.7,0.6-7.4,1.9-10.8
		c1.2-3.3,3.1-6.3,5.5-8.9c2.3-2.5,5.1-4.6,8.3-6c3.3-1.5,6.9-2.3,10.5-2.2c4.3,0,8,0.8,11.2,2.3c3.1,1.5,5.8,3.6,8,6.3
		c2.2,2.7,3.8,5.9,4.8,9.2c1.1,3.6,1.6,7.3,1.6,11.1c0,0.5,0,1.1-0.1,1.6c-0.1,0.5-0.1,1.1-0.2,1.7h-39.3
		C147.5,61.9,149.3,65.2,152,67.6z M174.1,49.4c-0.2-1.9-0.6-3.8-1.3-5.5c-0.6-1.6-1.6-3.2-2.7-4.5c-1.2-1.3-2.6-2.3-4.1-3
		c-1.7-0.8-3.5-1.1-5.4-1.1c-3.8,0-6.9,1.3-9.4,3.9c-2.5,2.6-4,6-4.5,10.2L174.1,49.4z"/>
	<path d="M231.5,79.9v-6.6c-2,2.3-4.3,4.1-7,5.5c-2.8,1.5-6.3,2.2-10.3,2.2c-2.5,0-4.9-0.3-7.3-1.1c-2.2-0.7-4.2-1.7-6-3.1
		c-3.7-3-5.9-7.5-5.7-12.3v-0.2c-0.1-2.6,0.5-5.2,1.6-7.6c1.1-2.1,2.6-4,4.5-5.4c2.1-1.5,4.4-2.6,6.9-3.2c2.8-0.7,5.7-1.1,8.7-1.1
		c2.8,0,5.5,0.2,8.3,0.6c2.2,0.4,4.4,0.9,6.5,1.6v-1.3c0-3.7-1.1-6.6-3.4-8.5c-2.3-2-5.5-2.9-9.8-2.9c-2.7,0-5.5,0.3-8.1,0.9
		c-2.5,0.6-4.9,1.5-7.2,2.4l-3.4-9.8c2.9-1.3,6-2.4,9.1-3.2c3.7-0.9,7.5-1.3,11.3-1.2c8,0,13.9,2,17.7,5.9c3.9,4,5.8,9.5,5.8,16.7
		v31.7L231.5,79.9z M231.8,57.2c-1.8-0.7-3.6-1.2-5.5-1.5c-2.2-0.4-4.5-0.6-6.7-0.6c-3.9,0-6.9,0.7-9,2.2s-3.2,3.6-3.2,6.4v0.2
		c0,2.6,1,4.5,3,5.9s4.4,2,7.4,2c1.9,0,3.8-0.3,5.6-0.8c1.6-0.5,3.2-1.3,4.5-2.3c1.3-0.9,2.3-2.2,3-3.5c0.7-1.4,1.1-3,1.1-4.6
		L231.8,57.2z"/>
	<path d="M270.6,79.9h-12.4V26.4h12.4v12.1c1.5-3.8,4-7.2,7.2-9.7c3.1-2.4,7-3.5,11.8-3.3v13h-0.7c-2.5,0-5,0.4-7.4,1.3
		c-2.2,0.9-4.2,2.2-5.8,3.9c-1.7,1.9-3,4.2-3.8,6.6c-0.9,3-1.4,6.1-1.3,9.3L270.6,79.9z"/>
	<path d="M312.5,79.9h-12.4V26.4h12.4v8.4c0.9-1.3,1.8-2.5,2.9-3.7c1.1-1.2,2.3-2.2,3.6-3c1.4-0.9,2.9-1.6,4.6-2.1
		c1.8-0.5,3.7-0.8,5.6-0.8c6.1,0,10.7,1.9,14.1,5.6c3.3,3.7,5,8.7,4.9,15v34.1h-12.4V49.5c0-4.2-1-7.4-3-9.7c-2-2.3-4.8-3.4-8.4-3.4
		c-3.6,0-6.4,1.2-8.6,3.5c-2.2,2.3-3.3,5.6-3.3,9.8L312.5,79.9z"/>
	<path d="M363.2,18.1V6.5h13.3v11.7H363.2z M363.7,79.9V26.4h12.4v53.5H363.7z"/>
	<path d="M404.3,79.9H392V26.4h12.4v8.4c0.9-1.3,1.8-2.5,2.9-3.7c1.1-1.2,2.3-2.2,3.6-3c1.4-0.9,2.9-1.6,4.6-2.1
		c1.8-0.5,3.7-0.8,5.6-0.8c6.1,0,10.8,1.9,14.1,5.6s5,8.7,5,15v34.1h-12.4V49.5c0-4.2-1-7.4-3-9.7c-2-2.3-4.8-3.4-8.4-3.4
		c-3.6,0-6.4,1.2-8.6,3.5c-2.2,2.3-3.3,5.6-3.3,9.8L404.3,79.9z"/>
	<path d="M500,89.7c-5,4.4-12.1,6.6-21.3,6.6c-8.9,0-16.9-2.1-23.9-6.4l4.6-9.2c2.8,1.7,5.8,3.1,8.9,4.2c3.3,1,6.7,1.6,10.2,1.5
		c5.5,0,9.7-1.4,12.6-4.2c2.9-2.8,4.4-6.9,4.4-12.3v-4.2c-2.1,2.9-4.8,5.3-7.8,7.2c-3,1.8-6.7,2.8-11.1,2.8c-3.1,0-6.2-0.6-9.1-1.7
		c-2.9-1.1-5.5-2.8-7.8-4.9c-2.3-2.2-4.2-4.9-5.4-7.9c-1.4-3.4-2.1-7-2-10.6c-0.1-3.7,0.6-7.3,2-10.7c1.3-3,3.1-5.7,5.4-7.9
		c2.2-2.2,4.9-3.8,7.8-5c2.9-1.1,6-1.7,9.1-1.7c4.5,0,8.3,0.9,11.2,2.7c2.9,1.7,5.4,3.9,7.6,6.5v-8.1h12.3v42.6
		C507.5,78.4,505,85.3,500,89.7z M494.2,44.4c-0.8-1.8-2-3.4-3.4-4.7c-1.5-1.3-3.2-2.3-5-3c-1.9-0.7-4-1.1-6.1-1.1
		c-2,0-4.1,0.3-6,1.1c-1.8,0.7-3.4,1.7-4.8,3c-1.4,1.3-2.5,2.9-3.2,4.6c-0.8,1.9-1.2,4-1.2,6c0,2.1,0.4,4.1,1.2,6
		c0.8,1.8,1.9,3.3,3.2,4.7c1.4,1.3,3,2.4,4.8,3c1.9,0.7,3.9,1.1,5.9,1.1c2.1,0,4.1-0.4,6-1.1c1.9-0.7,3.6-1.7,5.1-3
		c1.4-1.3,2.6-2.9,3.4-4.6c0.9-1.9,1.3-3.9,1.3-6C495.4,48.4,495,46.3,494.2,44.4L494.2,44.4z"/>
</g>
</svg>
